{"title":"Flypaper.2011.DVDRip.x264.AC3.RoSub-Psycho","uid":6727651,"size":910781620,"categoryP":"video","categoryS":"movies","magnet":"?xt=urn:btih:364643f9cd5e87ab68673831dca8a77bfd48bbd6&amp;dn=Flypaper.2011.DVDRip.x264.AC3.RoSub-Psycho&amp;tr=udp%3A%2F%2Ftracker.openbittorrent.com%3A80&amp;tr=udp%3A%2F%2Fopen.demonii.com%3A1337&amp;tr=udp%3A%2F%2Ftracker.coppersurfer.tk%3A6969&amp;tr=udp%3A%2F%2Fexodus.desync.com%3A6969","seeders":0,"leechers":0,"uploader":"Francisco1206","files":-1,"time":1318001924,"description":"A man caught in the middle of two simultaneous robberies at the same bank desperately tries to protect the teller with whom he's secretly in love. \n\nIMDB rating: 6.4/10 (from 1,223 users)\n\nCAST:\n\nAshley Judd...................Kaitlin\nPatrick Dempsey...............Tripp\nOctavia Spencer...............Madge Wiggins\nTim Blake Nelson..............Peanut Butter\nJeffrey Tambor................Gordon Blythe\nMekhi Phifer..................Darrien\nPruitt Taylor Vince...........Jelly\nCurtis Armstrong\nMonica Acosta.................Bank Customer \nBeau Brasseaux................E.M.T. (as Beau Brasso)\nRob Huebel\nJohn Ventimiglia..............Weinstein\nAdrian Martinez...............Mr. Clean\nMatt Ryan.....................Gates\nKasey Emas....................Bank Customer (as Kasey Amanda)\n\nGeneral\n*******\nFormat                           : Matroska\nFile size                        : 869 MiB\nDuration                         : 1h 23mn\nOverall bit rate                 : 1 452 Kbps\nEncoded date                     : UTC 2011-10-07 13:31:29\nWriting application              : mkvmerge v5.0.0 ('Die Wahre Liebe') built on Sep 25 2011 20:33:49\nWriting library                  : libebml v1.2.2 + libmatroska v1.3.0\n\nVideo\n*****\nID                               : 1\nFormat                           : AVC\nFormat/Info                      : Advanced Video Codec\nFormat profile                   : &lt;a class=&quot;__cf_email__&quot; href=&quot;/cdn-cgi/l/email-protection&quot; data-cfemail=&quot;612c00080f212d524f51&quot;&gt;[email&amp;#160;protected]&lt;/a&gt;&lt;script data-cfhash='f9e31' type=&quot;text/javascript&quot;&gt;\n/* &lt;![CDATA[ */!function(){try{var t=&quot;currentScript&quot;in document?document.currentScript:function(){for(var t=document.getElementsByTagName(&quot;script&quot;),e=t.length;e--;)if(t[e].getAttribute(&quot;data-cfhash&quot;))return t[e]}();if(t&amp;&amp;t.previousSibling){var e,r,n,i,c=t.previousSibling,a=c.getAttribute(&quot;data-cfemail&quot;);if(a){for(e=&quot;&quot;,r=parseInt(a.substr(0,2),16),n=2;a.length-n;n+=2)i=parseInt(a.substr(n,2),16)^r,e+=String.fromCharCode(i);e=document.createTextNode(e),c.parentNode.replaceChild(e,c)}t.parentNode.removeChild(t);}}catch(u){}}()/* ]]&gt; */&lt;/script&gt;\nFormat settings, CABAC           : Yes\nFormat settings, ReFrames        : 4 frames\nMuxing mode                      : Container profile=&lt;a class=&quot;__cf_email__&quot; href=&quot;/cdn-cgi/l/email-protection&quot; data-cfemail=&quot;23764d484d4c544d63100d13&quot;&gt;[email&amp;#160;protected]&lt;/a&gt;&lt;script data-cfhash='f9e31' type=&quot;text/javascript&quot;&gt;\n/* &lt;![CDATA[ */!function(){try{var t=&quot;currentScript&quot;in document?document.currentScript:function(){for(var t=document.getElementsByTagName(&quot;script&quot;),e=t.length;e--;)if(t[e].getAttribute(&quot;data-cfhash&quot;))return t[e]}();if(t&amp;&amp;t.previousSibling){var e,r,n,i,c=t.previousSibling,a=c.getAttribute(&quot;data-cfemail&quot;);if(a){for(e=&quot;&quot;,r=parseInt(a.substr(0,2),16),n=2;a.length-n;n+=2)i=parseInt(a.substr(n,2),16)^r,e+=String.fromCharCode(i);e=document.createTextNode(e),c.parentNode.replaceChild(e,c)}t.parentNode.removeChild(t);}}catch(u){}}()/* ]]&gt; */&lt;/script&gt;\nCodec ID                         : V_MPEG4/ISO/AVC\nDuration                         : 1h 23mn\nBit rate                         : 975 Kbps\nNominal bit rate                 : 1 000 Kbps\nWidth                            : 720 pixels\nHeight                           : 304 pixels\nDisplay aspect ratio             : 2.35:1\nFrame rate                       : 23.976 fps\nResolution                       : 8 bits\nColorimetry                      : 4:2:0\nScan type                        : Progressive\nBits/(Pixel*Frame)               : 0.186\nStream size                      : 583 MiB (67%)\nWriting library                  : x264 core 112\n\n\nAudio\n*****\nID                               : 2\nFormat                           : AC-3\nFormat/Info                      : Audio Coding 3\nCodec ID                         : A_AC3\nDuration                         : 1h 23mn\nBit rate mode                    : Constant\nBit rate                         : 448 Kbps\nChannel(s)                       : 6 channels\nChannel positions                : Front: L C R, Side: L R, LFE\nSampling rate                    : 48.0 KHz\nStream size                      : 268 MiB (31%)\nLanguage                         : English\n\nText(subtitles)\n***************\nID                               : 3\nFormat                           : VobSub\nCodec ID                         : S_VOBSUB\nCodec ID/Info                    : The same subtitle format used on DVDs\nLanguage                         : ROMANIAN\n\nPLEASE SEED FOR AS LONG AS POSSIBLE!","torrent":{"xt":"urn:btih:364643f9cd5e87ab68673831dca8a77bfd48bbd6","amp;dn":"Flypaper.2011.DVDRip.x264.AC3.RoSub-Psycho","amp;tr":["udp%3A%2F%2Ftracker.openbittorrent.com%3A80","udp%3A%2F%2Fopen.demonii.com%3A1337","udp%3A%2F%2Ftracker.coppersurfer.tk%3A6969","udp%3A%2F%2Fexodus.desync.com%3A6969"],"infoHash":"364643f9cd5e87ab68673831dca8a77bfd48bbd6","infoHashBuffer":{"type":"Buffer","data":[54,70,67,249,205,94,135,171,104,103,56,49,220,168,167,123,253,72,187,214]},"announce":[],"urlList":[]}}